<?xml version="1.0" encoding="UTF-8" standalone="no"?><svg xmlns="http://www.w3.org/2000/svg" xmlns:xlink="http://www.w3.org/1999/xlink" contentScriptType="application/ecmascript" contentStyleType="text/css" height="595px" preserveAspectRatio="none" style="width:215px;height:595px;" version="1.1" viewBox="0 0 215 595" width="215px" zoomAndPan="magnify"><defs><filter height="300%" id="fm2spy4gci22v" width="300%" x="-1" y="-1"><feGaussianBlur result="blurOut" stdDeviation="2.0"/><feColorMatrix in="blurOut" result="blurOut2" type="matrix" values="0 0 0 0 0 0 0 0 0 0 0 0 0 0 0 0 0 0 .4 0"/><feOffset dx="4.0" dy="4.0" in="blurOut2" result="blurOut3"/><feBlend in="SourceGraphic" in2="blurOut3" mode="normal"/></filter></defs><g><ellipse cx="104.5" cy="20" fill="#000000" filter="url(#fm2spy4gci22v)" rx="10" ry="10" style="stroke:none;stroke-width:1.0;"/><rect fill="#FEFECE" filter="url(#fm2spy4gci22v)" height="50.1875" rx="12.5" ry="12.5" style="stroke:#A80036;stroke-width:1.5;" width="168" x="20.5" y="50"/><text fill="#000000" font-family="sans-serif" font-size="12" lengthAdjust="spacing" textLength="145" x="30.5" y="72.457">Recieve Compressed java</text><text fill="#000000" font-family="sans-serif" font-size="12" lengthAdjust="spacing" textLength="67" x="30.5" y="87.5508">source files.</text><rect fill="#FEFECE" filter="url(#fm2spy4gci22v)" height="50.1875" rx="12.5" ry="12.5" style="stroke:#A80036;stroke-width:1.5;" width="162" x="23.5" y="120.1875"/><text fill="#000000" font-family="sans-serif" font-size="12" lengthAdjust="spacing" textLength="139" x="33.5" y="142.6445">Decompress source files</text><text fill="#000000" font-family="sans-serif" font-size="12" lengthAdjust="spacing" textLength="82" x="33.5" y="157.7383">into a directory.</text><rect fill="#FEFECE" filter="url(#fm2spy4gci22v)" height="50.1875" rx="12.5" ry="12.5" style="stroke:#A80036;stroke-width:1.5;" width="170" x="19.5" y="190.375"/><text fill="#000000" font-family="sans-serif" font-size="12" lengthAdjust="spacing" textLength="119" x="29.5" y="212.832">Parse all the files and</text><text fill="#000000" font-family="sans-serif" font-size="12" lengthAdjust="spacing" textLength="150" x="29.5" y="227.9258">create Abstract Syntax Tree.</text><rect fill="#FEFECE" filter="url(#fm2spy4gci22v)" height="65.2813" rx="12.5" ry="12.5" style="stroke:#A80036;stroke-width:1.5;" width="172" x="18.5" y="260.5625"/><text fill="#000000" font-family="sans-serif" font-size="12" lengthAdjust="spacing" textLength="133" x="28.5" y="283.0195">Extract all the interesting</text><text fill="#000000" font-family="sans-serif" font-size="12" lengthAdjust="spacing" textLength="149" x="28.5" y="298.1133">information from AST using</text><text fill="#000000" font-family="sans-serif" font-size="12" lengthAdjust="spacing" textLength="89" x="28.5" y="313.207">a symbol solver.</text><rect fill="#FEFECE" filter="url(#fm2spy4gci22v)" height="65.2813" rx="12.5" ry="12.5" style="stroke:#A80036;stroke-width:1.5;" width="170" x="19.5" y="345.8438"/><text fill="#000000" font-family="sans-serif" font-size="12" lengthAdjust="spacing" textLength="147" x="29.5" y="368.3008">Generate Plant UML syntax</text><text fill="#000000" font-family="sans-serif" font-size="12" lengthAdjust="spacing" textLength="140" x="29.5" y="383.3945">from this information for a</text><text fill="#000000" font-family="sans-serif" font-size="12" lengthAdjust="spacing" textLength="82" x="29.5" y="398.4883">class diagram.</text><rect fill="#FEFECE" filter="url(#fm2spy4gci22v)" height="50.1875" rx="12.5" ry="12.5" style="stroke:#A80036;stroke-width:1.5;" width="187" x="11" y="431.125"/><text fill="#000000" font-family="sans-serif" font-size="12" lengthAdjust="spacing" textLength="167" x="21" y="453.582">Use Plant UML api to generate</text><text fill="#000000" font-family="sans-serif" font-size="12" lengthAdjust="spacing" textLength="159" x="21" y="468.6758">a svg using generated syntax</text><rect fill="#FEFECE" filter="url(#fm2spy4gci22v)" height="35.0938" rx="12.5" ry="12.5" style="stroke:#A80036;stroke-width:1.5;" width="93" x="58" y="501.3125"/><text fill="#000000" font-family="sans-serif" font-size="12" lengthAdjust="spacing" textLength="73" x="68" y="523.7695">send this svg</text><ellipse cx="104.5" cy="567.4063" fill="#FFFFFF" filter="url(#fm2spy4gci22v)" rx="11" ry="11" style="stroke:#000000;stroke-width:1.0;"/><ellipse cx="104.5" cy="567.4063" fill="#000000" rx="6" ry="6" style="stroke:#7F7F7F;stroke-width:1.0;"/><line style="stroke:#A80036;stroke-width:1.5;" x1="104.5" x2="104.5" y1="30" y2="50"/><polygon fill="#A80036" points="100.5,40,104.5,50,108.5,40,104.5,44" style="stroke:#A80036;stroke-width:1.0;"/><line style="stroke:#A80036;stroke-width:1.5;" x1="104.5" x2="104.5" y1="100.1875" y2="120.1875"/><polygon fill="#A80036" points="100.5,110.1875,104.5,120.1875,108.5,110.1875,104.5,114.1875" style="stroke:#A80036;stroke-width:1.0;"/><line style="stroke:#A80036;stroke-width:1.5;" x1="104.5" x2="104.5" y1="170.375" y2="190.375"/><polygon fill="#A80036" points="100.5,180.375,104.5,190.375,108.5,180.375,104.5,184.375" style="stroke:#A80036;stroke-width:1.0;"/><line style="stroke:#A80036;stroke-width:1.5;" x1="104.5" x2="104.5" y1="240.5625" y2="260.5625"/><polygon fill="#A80036" points="100.5,250.5625,104.5,260.5625,108.5,250.5625,104.5,254.5625" style="stroke:#A80036;stroke-width:1.0;"/><line style="stroke:#A80036;stroke-width:1.5;" x1="104.5" x2="104.5" y1="325.8438" y2="345.8438"/><polygon fill="#A80036" points="100.5,335.8438,104.5,345.8438,108.5,335.8438,104.5,339.8438" style="stroke:#A80036;stroke-width:1.0;"/><line style="stroke:#A80036;stroke-width:1.5;" x1="104.5" x2="104.5" y1="411.125" y2="431.125"/><polygon fill="#A80036" points="100.5,421.125,104.5,431.125,108.5,421.125,104.5,425.125" style="stroke:#A80036;stroke-width:1.0;"/><line style="stroke:#A80036;stroke-width:1.5;" x1="104.5" x2="104.5" y1="481.3125" y2="501.3125"/><polygon fill="#A80036" points="100.5,491.3125,104.5,501.3125,108.5,491.3125,104.5,495.3125" style="stroke:#A80036;stroke-width:1.0;"/><line style="stroke:#A80036;stroke-width:1.5;" x1="104.5" x2="104.5" y1="536.4063" y2="556.4063"/><polygon fill="#A80036" points="100.5,546.4063,104.5,556.4063,108.5,546.4063,104.5,550.4063" style="stroke:#A80036;stroke-width:1.0;"/><!--MD5=[d71706c8a57e90ce2f8aec91bd308e2d]
@startuml
'https://plantuml.com/activity-diagram-beta

start
:Recieve Compressed java \nsource files.;
:Decompress source files \ninto a directory.;
:Parse all the files and \ncreate Abstract Syntax Tree.;
:Extract all the interesting \ninformation from AST using \na symbol solver.;
:Generate Plant UML syntax \nfrom this information for a \nclass diagram.;
:Use Plant UML api to generate\na svg using generated syntax;
:send this svg;
stop

@enduml

@startuml

start
:Recieve Compressed java \nsource files.;
:Decompress source files \ninto a directory.;
:Parse all the files and \ncreate Abstract Syntax Tree.;
:Extract all the interesting \ninformation from AST using \na symbol solver.;
:Generate Plant UML syntax \nfrom this information for a \nclass diagram.;
:Use Plant UML api to generate\na svg using generated syntax;
:send this svg;
stop

@enduml

PlantUML version 1.2021.00(Sun Jan 10 15:55:05 IST 2021)
(GPL source distribution)
Java Runtime: OpenJDK Runtime Environment
JVM: OpenJDK 64-Bit Server VM
Default Encoding: Cp1252
Language: en
Country: IN
--></g></svg>